<svg width="24" height="24" viewBox="0 0 24 24" fill="none" xmlns="http://www.w3.org/2000/svg">
<path fill-rule="evenodd" clip-rule="evenodd" d="M1 12C1 5.928 5.917 1 11.989 1C18.072 1 23 5.928 23 12C23 18.072 18.072 23 11.989 23C5.917 23 1 18.072 1 12ZM16.367 7.6H19.612C18.556 5.785 16.873 4.377 14.849 3.684C15.509 4.905 16.015 6.225 16.367 7.6ZM11.9997 3.244C12.9127 4.564 13.6277 6.027 14.1007 7.6H9.89874C10.3717 6.027 11.0867 4.564 11.9997 3.244ZM3.19981 12C3.19981 12.759 3.30981 13.496 3.48581 14.2H7.20381C7.11581 13.474 7.04981 12.748 7.04981 12C7.04981 11.252 7.11581 10.526 7.20381 9.8H3.48581C3.30981 10.504 3.19981 11.241 3.19981 12ZM4.38799 16.4H7.63299C7.98499 17.775 8.49099 19.095 9.15099 20.316C7.12699 19.623 5.44399 18.226 4.38799 16.4ZM4.38799 7.6H7.63299C7.98499 6.225 8.49099 4.905 9.15099 3.684C7.12699 4.377 5.44399 5.774 4.38799 7.6ZM11.9997 20.756C11.0867 19.436 10.3717 17.973 9.89874 16.4H14.1007C13.6277 17.973 12.9127 19.436 11.9997 20.756ZM9.426 14.2H14.574C14.673 13.474 14.75 12.748 14.75 12C14.75 11.252 14.673 10.515 14.574 9.8H9.426C9.327 10.515 9.25 11.252 9.25 12C9.25 12.748 9.327 13.474 9.426 14.2ZM14.849 20.316C15.509 19.095 16.015 17.775 16.367 16.4H19.612C18.556 18.215 16.873 19.623 14.849 20.316ZM16.9502 12C16.9502 12.748 16.8842 13.474 16.7962 14.2H20.5142C20.6902 13.496 20.8002 12.759 20.8002 12C20.8002 11.241 20.6902 10.504 20.5142 9.8H16.7962C16.8842 10.526 16.9502 11.252 16.9502 12Z" fill="black"/>
<path d="M19.612 7.6V8.1H20.4814L20.0442 7.34855L19.612 7.6ZM16.367 7.6L15.8826 7.724L15.9789 8.1H16.367V7.6ZM14.849 3.684L15.011 3.21096L13.801 2.79667L14.4092 3.92175L14.849 3.684ZM14.1007 7.6V8.1H14.7732L14.5796 7.45602L14.1007 7.6ZM11.9997 3.244L12.411 2.95957L11.9997 2.36504L11.5885 2.95957L11.9997 3.244ZM9.89874 7.6L9.41991 7.45602L9.22627 8.1H9.89874V7.6ZM3.48581 14.2L3.00074 14.3213L3.09542 14.7H3.48581V14.2ZM7.20381 14.2V14.7H7.76808L7.70018 14.1398L7.20381 14.2ZM7.20381 9.8L7.70018 9.86017L7.76808 9.3H7.20381V9.8ZM3.48581 9.8V9.3H3.09542L3.00074 9.67873L3.48581 9.8ZM7.63299 16.4L8.11737 16.276L8.02112 15.9H7.63299V16.4ZM4.38799 16.4V15.9H3.52124L3.95516 16.6503L4.38799 16.4ZM9.15099 20.316L8.98903 20.789L10.199 21.2033L9.59085 20.0782L9.15099 20.316ZM7.63299 7.6V8.1H8.02112L8.11737 7.724L7.63299 7.6ZM4.38799 7.6L3.95516 7.34968L3.52124 8.1H4.38799V7.6ZM9.15099 3.684L9.59085 3.92175L10.199 2.79667L8.98903 3.21096L9.15099 3.684ZM9.89874 16.4V15.9H9.22627L9.41991 16.544L9.89874 16.4ZM11.9997 20.756L11.5885 21.0404L11.9997 21.635L12.411 21.0404L11.9997 20.756ZM14.1007 16.4L14.5796 16.544L14.7732 15.9H14.1007V16.4ZM14.574 14.2V14.7H15.0104L15.0694 14.2676L14.574 14.2ZM9.426 14.2L8.93058 14.2676L8.98955 14.7H9.426V14.2ZM14.574 9.8L15.0693 9.73142L15.0095 9.3H14.574V9.8ZM9.426 9.8V9.3H8.99046L8.93072 9.73142L9.426 9.8ZM16.367 16.4V15.9H15.9789L15.8826 16.276L16.367 16.4ZM14.849 20.316L14.4092 20.0782L13.801 21.2033L15.011 20.789L14.849 20.316ZM19.612 16.4L20.0442 16.6514L20.4814 15.9H19.612V16.4ZM16.7962 14.2L16.2998 14.1398L16.2319 14.7H16.7962V14.2ZM20.5142 14.2V14.7H20.9045L20.9992 14.3213L20.5142 14.2ZM20.5142 9.8L20.9992 9.67873L20.9045 9.3H20.5142V9.8ZM16.7962 9.8V9.3H16.2319L16.2998 9.86017L16.7962 9.8ZM11.989 0.5C5.64021 0.5 0.5 5.65251 0.5 12H1.5C1.5 6.20349 6.19379 1.5 11.989 1.5V0.5ZM23.5 12C23.5 5.65153 18.3478 0.5 11.989 0.5V1.5C17.7962 1.5 22.5 6.20447 22.5 12H23.5ZM11.989 23.5C18.3478 23.5 23.5 18.3485 23.5 12H22.5C22.5 17.7955 17.7962 22.5 11.989 22.5V23.5ZM0.5 12C0.5 18.3475 5.64021 23.5 11.989 23.5V22.5C6.19379 22.5 1.5 17.7965 1.5 12H0.5ZM19.612 7.1H16.367V8.1H19.612V7.1ZM14.6871 4.15704C16.5949 4.81028 18.1831 6.13825 19.1798 7.85144L20.0442 7.34855C18.929 5.43175 17.1511 3.94372 15.011 3.21096L14.6871 4.15704ZM16.8514 7.47599C16.49 6.06419 15.9696 4.70565 15.2889 3.44624L14.4092 3.92175C15.0484 5.10435 15.5401 6.3858 15.8826 7.724L16.8514 7.47599ZM14.5796 7.45602C14.0911 5.83161 13.3529 4.32139 12.411 2.95957L11.5885 3.52843C12.4726 4.80661 13.1644 6.22239 13.6219 7.74398L14.5796 7.45602ZM9.89874 8.1H14.1007V7.1H9.89874V8.1ZM11.5885 2.95957C10.6466 4.32139 9.90837 5.83161 9.41991 7.45602L10.3776 7.74398C10.8351 6.22239 11.5269 4.80661 12.411 3.52843L11.5885 2.95957ZM3.97088 14.0787C3.80283 13.4065 3.69981 12.7107 3.69981 12H2.69981C2.69981 12.8073 2.81679 13.5855 3.00074 14.3213L3.97088 14.0787ZM7.20381 13.7H3.48581V14.7H7.20381V13.7ZM6.54981 12C6.54981 12.7768 6.61835 13.5252 6.70745 14.2602L7.70018 14.1398C7.61327 13.4228 7.54981 12.7193 7.54981 12H6.54981ZM6.70745 9.73984C6.61835 10.4748 6.54981 11.2233 6.54981 12H7.54981C7.54981 11.2808 7.61327 10.5772 7.70018 9.86017L6.70745 9.73984ZM3.48581 10.3H7.20381V9.3H3.48581V10.3ZM3.69981 12C3.69981 11.2893 3.80283 10.5935 3.97088 9.92127L3.00074 9.67873C2.81679 10.4145 2.69981 11.1927 2.69981 12H3.69981ZM7.63299 15.9H4.38799V16.9H7.63299V15.9ZM9.59085 20.0782C8.95161 18.8956 8.45995 17.6142 8.11737 16.276L7.14861 16.524C7.51003 17.9358 8.03038 19.2943 8.71114 20.5538L9.59085 20.0782ZM3.95516 16.6503C5.07118 18.5801 6.85003 20.0567 8.98903 20.789L9.31296 19.843C7.40396 19.1893 5.8168 17.8719 4.82082 16.1497L3.95516 16.6503ZM7.63299 7.1H4.38799V8.1H7.63299V7.1ZM8.71114 3.44624C8.03038 4.70565 7.51003 6.06419 7.14861 7.47599L8.11737 7.724C8.45995 6.3858 8.95161 5.10435 9.59085 3.92175L8.71114 3.44624ZM4.82082 7.85031C5.8168 6.1281 7.40396 4.81066 9.31296 4.15704L8.98903 3.21096C6.85003 3.94333 5.07118 5.41989 3.95516 7.34968L4.82082 7.85031ZM9.41991 16.544C9.90837 18.1684 10.6466 19.6786 11.5885 21.0404L12.411 20.4716C11.5269 19.1934 10.8351 17.7776 10.3776 16.256L9.41991 16.544ZM14.1007 15.9H9.89874V16.9H14.1007V15.9ZM12.411 21.0404C13.3529 19.6786 14.0911 18.1684 14.5796 16.544L13.6219 16.256C13.1644 17.7776 12.4726 19.1934 11.5885 20.4716L12.411 21.0404ZM14.574 13.7H9.426V14.7H14.574V13.7ZM14.25 12C14.25 12.7147 14.1764 13.4149 14.0786 14.1324L15.0694 14.2676C15.1696 13.5331 15.25 12.7813 15.25 12H14.25ZM14.0787 9.86858C14.1763 10.5736 14.25 11.285 14.25 12H15.25C15.25 11.219 15.1697 10.4564 15.0693 9.73142L14.0787 9.86858ZM9.426 10.3H14.574V9.3H9.426V10.3ZM9.75 12C9.75 11.285 9.82366 10.5736 9.92127 9.86858L8.93072 9.73142C8.83034 10.4564 8.75 11.219 8.75 12H9.75ZM9.92141 14.1324C9.82357 13.4149 9.75 12.7147 9.75 12H8.75C8.75 12.7813 8.83043 13.5331 8.93058 14.2676L9.92141 14.1324ZM15.8826 16.276C15.5401 17.6142 15.0484 18.8956 14.4092 20.0782L15.2889 20.5538C15.9696 19.2943 16.49 17.9358 16.8514 16.524L15.8826 16.276ZM19.612 15.9H16.367V16.9H19.612V15.9ZM15.011 20.789C17.1511 20.0563 18.929 18.5682 20.0442 16.6514L19.1798 16.1486C18.1831 17.8617 16.5949 19.1897 14.6871 19.843L15.011 20.789ZM17.2925 14.2602C17.3816 13.5252 17.4502 12.7768 17.4502 12H16.4502C16.4502 12.7193 16.3867 13.4228 16.2998 14.1398L17.2925 14.2602ZM20.5142 13.7H16.7962V14.7H20.5142V13.7ZM20.3002 12C20.3002 12.7107 20.1971 13.4065 20.0291 14.0787L20.9992 14.3213C21.1832 13.5855 21.3002 12.8073 21.3002 12H20.3002ZM20.0291 9.92127C20.1971 10.5935 20.3002 11.2893 20.3002 12H21.3002C21.3002 11.1927 21.1832 10.4145 20.9992 9.67873L20.0291 9.92127ZM16.7962 10.3H20.5142V9.3H16.7962V10.3ZM17.4502 12C17.4502 11.2233 17.3816 10.4748 17.2925 9.73984L16.2998 9.86017C16.3867 10.5772 16.4502 11.2808 16.4502 12H17.4502Z" fill="white"/>
</svg>
